<svg width="40" height="40" viewBox="0 0 40 40" fill="none" xmlns="http://www.w3.org/2000/svg">
<path d="M35.4 10.4481C34.2467 10.959 33.0234 11.2942 31.7708 11.4425C33.0902 10.653 34.0775 9.41079 34.5488 7.94727C33.3086 8.68349 31.9516 9.20191 30.5364 9.48007C29.9452 8.84944 29.2307 8.34695 28.4373 8.00375C27.6439 7.66054 26.7884 7.48393 25.924 7.48487C22.4344 7.48487 19.6048 10.3137 19.6048 13.8041C19.6048 14.2989 19.6608 14.7817 19.7688 15.2445C14.5168 14.9809 9.8608 12.4649 6.744 8.64127C6.18203 9.60569 5.88673 10.7023 5.8884 11.8185C5.88757 12.8589 6.14375 13.8834 6.63418 14.8009C7.12461 15.7185 7.8341 16.5007 8.6996 17.0781C7.69628 17.0462 6.71508 16.7752 5.8376 16.2877C5.8368 16.3141 5.8368 16.3401 5.8368 16.3673C5.8368 19.4281 8.0148 21.9821 10.9052 22.5633C9.9745 22.8152 8.99868 22.8522 8.0516 22.6713C8.8556 25.1813 11.1892 27.0089 13.9544 27.0601C11.716 28.8167 8.95181 29.7695 6.1064 29.7653C5.5964 29.7653 5.0936 29.7357 4.5988 29.6769C7.48813 31.5333 10.8509 32.5187 14.2852 32.5153C25.9084 32.5153 32.2644 22.8869 32.2644 14.5373C32.2644 14.2637 32.258 13.9905 32.246 13.7189C33.4838 12.8252 34.5519 11.7175 35.4 10.4481Z" fill="#0D47A1"/>
</svg>
