<svg width="40" height="40" viewBox="0 0 40 40" fill="none" xmlns="http://www.w3.org/2000/svg">
<path d="M32.8104 5.6001H7.18961C6.76802 5.6001 6.3637 5.76757 6.06559 6.06568C5.76748 6.36379 5.60001 6.76811 5.60001 7.1897V32.8109C5.60011 33.2324 5.76763 33.6366 6.06573 33.9347C6.36383 34.2327 6.76809 34.4001 7.18961 34.4001H20.9828V23.2473H17.2296V18.9009H20.9828V15.6953C20.9828 11.9753 23.2548 9.9501 26.5732 9.9501C28.1628 9.9501 29.5288 10.0681 29.9272 10.1213V14.0089L27.6256 14.0101C25.8208 14.0101 25.4716 14.8677 25.4716 16.1261V18.9013H29.7756L29.2152 23.2477H25.4716V34.4001H32.8108C33.2323 34.4 33.6365 34.2325 33.9346 33.9344C34.2326 33.6363 34.4 33.232 34.4 32.8105V7.1897C34.4 6.76811 34.2325 6.36379 33.9344 6.06568C33.6363 5.76757 33.232 5.6001 32.8104 5.6001Z" fill="#0D47A1"/>
</svg>
